<?xml version="1.0" encoding="UTF-8" standalone="no"?><svg xmlns="http://www.w3.org/2000/svg" xmlns:xlink="http://www.w3.org/1999/xlink" contentScriptType="application/ecmascript" contentStyleType="text/css" height="522px" preserveAspectRatio="none" style="width:688px;height:522px;background:#FFFFFF;" version="1.1" viewBox="0 0 688 522" width="688px" zoomAndPan="magnify"><defs><filter height="300%" id="f1b3oqojezmb9r" width="300%" x="-1" y="-1"><feGaussianBlur result="blurOut" stdDeviation="2.0"/><feColorMatrix in="blurOut" result="blurOut2" type="matrix" values="0 0 0 0 0 0 0 0 0 0 0 0 0 0 0 0 0 0 .4 0"/><feOffset dx="4.0" dy="4.0" in="blurOut2" result="blurOut3"/><feBlend in="SourceGraphic" in2="blurOut3" mode="normal"/></filter></defs><g><text fill="#000000" font-family="sans-serif" font-size="18" lengthAdjust="spacing" textLength="282" x="202.3125" y="26.708">recc - Local/Remote Execution</text><ellipse cx="365.625" cy="40.9531" fill="#000000" filter="url(#f1b3oqojezmb9r)" rx="10" ry="10" style="stroke:none;stroke-width:1.0;"/><path d="M443.625,60.9531 L443.625,84.6523 L423.625,88.6523 L443.625,92.6523 L443.625,116.3516 A0,0 0 0 0 443.625,116.3516 L676.625,116.3516 A0,0 0 0 0 676.625,116.3516 L676.625,70.9531 L666.625,60.9531 L443.625,60.9531 A0,0 0 0 0 443.625,60.9531 " fill="#FBFB77" filter="url(#f1b3oqojezmb9r)" style="stroke:#A80036;stroke-width:1.0;"/><path d="M666.625,60.9531 L666.625,70.9531 L676.625,70.9531 L666.625,60.9531 " fill="#FBFB77" style="stroke:#A80036;stroke-width:1.0;"/><text fill="#000000" font-family="sans-serif" font-size="13" lengthAdjust="spacing" textLength="212" x="449.625" y="78.02">A "compiler command" invokes a</text><text fill="#000000" font-family="sans-serif" font-size="13" lengthAdjust="spacing" textLength="192" x="449.625" y="93.1528">known compiler with "-c" in its</text><text fill="#000000" font-family="sans-serif" font-size="13" lengthAdjust="spacing" textLength="89" x="449.625" y="108.2856">argument list.</text><rect fill="#FEFECE" filter="url(#f1b3oqojezmb9r)" height="33.9688" rx="12.5" ry="12.5" style="stroke:#A80036;stroke-width:1.5;" width="116" x="307.625" y="71.668"/><text fill="#000000" font-family="sans-serif" font-size="12" lengthAdjust="spacing" textLength="96" x="317.625" y="92.8066">Parse command</text><polygon fill="#FEFECE" filter="url(#f1b3oqojezmb9r)" points="235.125,184.7539,496.125,184.7539,508.125,196.7539,496.125,208.7539,235.125,208.7539,223.125,196.7539,235.125,184.7539" style="stroke:#A80036;stroke-width:1.5;"/><text fill="#000000" font-family="sans-serif" font-size="11" lengthAdjust="spacing" textLength="261" x="235.125" y="200.562">Compiler command or RECC_FORCE_REMOTE?</text><text fill="#000000" font-family="sans-serif" font-size="11" lengthAdjust="spacing" textLength="21" x="202.125" y="194.1597">yes</text><text fill="#000000" font-family="sans-serif" font-size="11" lengthAdjust="spacing" textLength="14" x="508.125" y="194.1597">no</text><polygon fill="#FEFECE" filter="url(#f1b3oqojezmb9r)" points="137.25,218.7539,248.25,218.7539,260.25,230.7539,248.25,242.7539,137.25,242.7539,125.25,230.7539,137.25,218.7539" style="stroke:#A80036;stroke-width:1.5;"/><text fill="#000000" font-family="sans-serif" font-size="11" lengthAdjust="spacing" textLength="111" x="137.25" y="234.562">RECC_CACHE_ONLY</text><text fill="#000000" font-family="sans-serif" font-size="11" lengthAdjust="spacing" textLength="7" x="118.25" y="228.1597">1</text><text fill="#000000" font-family="sans-serif" font-size="11" lengthAdjust="spacing" textLength="7" x="260.25" y="228.1597">0</text><rect fill="#FEFECE" filter="url(#f1b3oqojezmb9r)" height="33.9688" rx="12.5" ry="12.5" style="stroke:#A80036;stroke-width:1.5;" width="110" x="26.5" y="301.1563"/><text fill="#000000" font-family="sans-serif" font-size="12" lengthAdjust="spacing" textLength="90" x="36.5" y="322.2949">Execute locally</text><ellipse cx="81.5" cy="368.5586" fill="#FFFFFF" filter="url(#f1b3oqojezmb9r)" rx="11" ry="11" style="stroke:#000000;stroke-width:1.0;"/><ellipse cx="81.5" cy="368.5586" fill="#000000" rx="6" ry="6" style="stroke:#7F7F7F;stroke-width:1.0;"/><polygon fill="#FEFECE" filter="url(#f1b3oqojezmb9r)" points="32,252.7539,131,252.7539,143,264.7539,131,276.7539,32,276.7539,20,264.7539,32,252.7539" style="stroke:#A80036;stroke-width:1.5;"/><text fill="#000000" font-family="sans-serif" font-size="11" lengthAdjust="spacing" textLength="14" x="85.5" y="286.9644">no</text><text fill="#000000" font-family="sans-serif" font-size="11" lengthAdjust="spacing" textLength="99" x="32" y="268.562">Action Cache hit?</text><text fill="#000000" font-family="sans-serif" font-size="11" lengthAdjust="spacing" textLength="21" x="143" y="262.1597">yes</text><ellipse cx="186" cy="264.7539" fill="#FFFFFF" filter="url(#f1b3oqojezmb9r)" rx="11" ry="11" style="stroke:#000000;stroke-width:1.0;"/><ellipse cx="186" cy="264.7539" fill="#000000" rx="6" ry="6" style="stroke:#7F7F7F;stroke-width:1.0;"/><polygon fill="#FEFECE" filter="url(#f1b3oqojezmb9r)" points="254.5,301.1563,353.5,301.1563,365.5,313.1563,353.5,325.1563,254.5,325.1563,242.5,313.1563,254.5,301.1563" style="stroke:#A80036;stroke-width:1.5;"/><text fill="#000000" font-family="sans-serif" font-size="11" lengthAdjust="spacing" textLength="14" x="308" y="335.3667">no</text><text fill="#000000" font-family="sans-serif" font-size="11" lengthAdjust="spacing" textLength="99" x="254.5" y="316.9644">Action Cache hit?</text><text fill="#000000" font-family="sans-serif" font-size="11" lengthAdjust="spacing" textLength="21" x="365.5" y="310.562">yes</text><ellipse cx="408.5" cy="313.1563" fill="#FFFFFF" filter="url(#f1b3oqojezmb9r)" rx="11" ry="11" style="stroke:#000000;stroke-width:1.0;"/><ellipse cx="408.5" cy="313.1563" fill="#000000" rx="6" ry="6" style="stroke:#7F7F7F;stroke-width:1.0;"/><polygon fill="#FEFECE" filter="url(#f1b3oqojezmb9r)" points="251.5,252.7539,356.5,252.7539,368.5,264.7539,356.5,276.7539,251.5,276.7539,239.5,264.7539,251.5,252.7539" style="stroke:#A80036;stroke-width:1.5;"/><text fill="#000000" font-family="sans-serif" font-size="11" lengthAdjust="spacing" textLength="7" x="308" y="286.9644">0</text><text fill="#000000" font-family="sans-serif" font-size="11" lengthAdjust="spacing" textLength="105" x="251.5" y="268.562">RECC_SKIP_CACHE</text><text fill="#000000" font-family="sans-serif" font-size="11" lengthAdjust="spacing" textLength="7" x="368.5" y="262.1597">1</text><polygon fill="#FEFECE" filter="url(#f1b3oqojezmb9r)" points="304,385.7969,316,397.7969,304,409.7969,292,397.7969,304,385.7969" style="stroke:#A80036;stroke-width:1.5;"/><rect fill="#FEFECE" filter="url(#f1b3oqojezmb9r)" height="33.9688" rx="12.5" ry="12.5" style="stroke:#A80036;stroke-width:1.5;" width="129" x="239.5" y="429.7969"/><text fill="#000000" font-family="sans-serif" font-size="12" lengthAdjust="spacing" textLength="109" x="249.5" y="450.9355">Remote execution</text><ellipse cx="304" cy="494.7656" fill="#FFFFFF" filter="url(#f1b3oqojezmb9r)" rx="11" ry="11" style="stroke:#000000;stroke-width:1.0;"/><ellipse cx="304" cy="494.7656" fill="#000000" rx="6" ry="6" style="stroke:#7F7F7F;stroke-width:1.0;"/><rect fill="#FEFECE" filter="url(#f1b3oqojezmb9r)" height="33.9688" rx="12.5" ry="12.5" style="stroke:#A80036;stroke-width:1.5;" width="110" x="483.5" y="218.7539"/><text fill="#000000" font-family="sans-serif" font-size="12" lengthAdjust="spacing" textLength="90" x="493.5" y="239.8926">Execute locally</text><ellipse cx="538.5" cy="298.7227" fill="#FFFFFF" filter="url(#f1b3oqojezmb9r)" rx="11" ry="11" style="stroke:#000000;stroke-width:1.0;"/><ellipse cx="538.5" cy="298.7227" fill="#000000" rx="6" ry="6" style="stroke:#7F7F7F;stroke-width:1.0;"/><polygon fill="#FEFECE" filter="url(#f1b3oqojezmb9r)" points="310.125,136.3516,421.125,136.3516,433.125,148.3516,421.125,160.3516,310.125,160.3516,298.125,148.3516,310.125,136.3516" style="stroke:#A80036;stroke-width:1.5;"/><text fill="#000000" font-family="sans-serif" font-size="11" lengthAdjust="spacing" textLength="7" x="369.625" y="170.562">0</text><text fill="#000000" font-family="sans-serif" font-size="11" lengthAdjust="spacing" textLength="111" x="310.125" y="152.1597">RECC_NO_EXECUTE</text><text fill="#000000" font-family="sans-serif" font-size="11" lengthAdjust="spacing" textLength="7" x="433.125" y="145.7573">1</text><ellipse cx="466.125" cy="148.3516" fill="#FFFFFF" filter="url(#f1b3oqojezmb9r)" rx="11" ry="11" style="stroke:#000000;stroke-width:1.0;"/><ellipse cx="466.125" cy="148.3516" fill="#000000" rx="6" ry="6" style="stroke:#7F7F7F;stroke-width:1.0;"/><line style="stroke:#A80036;stroke-width:1.5;" x1="365.625" x2="365.625" y1="50.9531" y2="71.668"/><polygon fill="#A80036" points="361.625,61.668,365.625,71.668,369.625,61.668,365.625,65.668" style="stroke:#A80036;stroke-width:1.0;"/><line style="stroke:#A80036;stroke-width:1.5;" x1="81.5" x2="81.5" y1="335.125" y2="357.5586"/><polygon fill="#A80036" points="77.5,347.5586,81.5,357.5586,85.5,347.5586,81.5,351.5586" style="stroke:#A80036;stroke-width:1.0;"/><line style="stroke:#A80036;stroke-width:1.5;" x1="81.5" x2="81.5" y1="276.7539" y2="301.1563"/><polygon fill="#A80036" points="77.5,291.1563,81.5,301.1563,85.5,291.1563,81.5,295.1563" style="stroke:#A80036;stroke-width:1.0;"/><line style="stroke:#A80036;stroke-width:1.5;" x1="143" x2="175" y1="264.7539" y2="264.7539"/><polygon fill="#A80036" points="165,260.7539,175,264.7539,165,268.7539,169,264.7539" style="stroke:#A80036;stroke-width:1.0;"/><line style="stroke:#A80036;stroke-width:1.5;" x1="304" x2="304" y1="325.1563" y2="385.7969"/><polygon fill="#A80036" points="300,375.7969,304,385.7969,308,375.7969,304,379.7969" style="stroke:#A80036;stroke-width:1.0;"/><line style="stroke:#A80036;stroke-width:1.5;" x1="365.5" x2="397.5" y1="313.1563" y2="313.1563"/><polygon fill="#A80036" points="387.5,309.1563,397.5,313.1563,387.5,317.1563,391.5,313.1563" style="stroke:#A80036;stroke-width:1.0;"/><line style="stroke:#A80036;stroke-width:1.5;" x1="304" x2="304" y1="276.7539" y2="301.1563"/><polygon fill="#A80036" points="300,291.1563,304,301.1563,308,291.1563,304,295.1563" style="stroke:#A80036;stroke-width:1.0;"/><line style="stroke:#A80036;stroke-width:1.5;" x1="368.5" x2="441.5" y1="264.7539" y2="264.7539"/><polygon fill="#A80036" points="437.5,327.5586,441.5,337.5586,445.5,327.5586,441.5,331.5586" style="stroke:#A80036;stroke-width:1.5;"/><line style="stroke:#A80036;stroke-width:1.5;" x1="441.5" x2="441.5" y1="264.7539" y2="397.7969"/><line style="stroke:#A80036;stroke-width:1.5;" x1="441.5" x2="316" y1="397.7969" y2="397.7969"/><polygon fill="#A80036" points="326,393.7969,316,397.7969,326,401.7969,322,397.7969" style="stroke:#A80036;stroke-width:1.0;"/><line style="stroke:#A80036;stroke-width:1.5;" x1="304" x2="304" y1="409.7969" y2="429.7969"/><polygon fill="#A80036" points="300,419.7969,304,429.7969,308,419.7969,304,423.7969" style="stroke:#A80036;stroke-width:1.0;"/><line style="stroke:#A80036;stroke-width:1.5;" x1="304" x2="304" y1="463.7656" y2="483.7656"/><polygon fill="#A80036" points="300,473.7656,304,483.7656,308,473.7656,304,477.7656" style="stroke:#A80036;stroke-width:1.0;"/><line style="stroke:#A80036;stroke-width:1.5;" x1="125.25" x2="81.5" y1="230.7539" y2="230.7539"/><line style="stroke:#A80036;stroke-width:1.5;" x1="81.5" x2="81.5" y1="230.7539" y2="252.7539"/><polygon fill="#A80036" points="77.5,242.7539,81.5,252.7539,85.5,242.7539,81.5,246.7539" style="stroke:#A80036;stroke-width:1.0;"/><line style="stroke:#A80036;stroke-width:1.5;" x1="260.25" x2="304" y1="230.7539" y2="230.7539"/><line style="stroke:#A80036;stroke-width:1.5;" x1="304" x2="304" y1="230.7539" y2="252.7539"/><polygon fill="#A80036" points="300,242.7539,304,252.7539,308,242.7539,304,246.7539" style="stroke:#A80036;stroke-width:1.0;"/><line style="stroke:#A80036;stroke-width:1.5;" x1="538.5" x2="538.5" y1="252.7227" y2="287.7227"/><polygon fill="#A80036" points="534.5,277.7227,538.5,287.7227,542.5,277.7227,538.5,281.7227" style="stroke:#A80036;stroke-width:1.0;"/><line style="stroke:#A80036;stroke-width:1.5;" x1="223.125" x2="192.75" y1="196.7539" y2="196.7539"/><line style="stroke:#A80036;stroke-width:1.5;" x1="192.75" x2="192.75" y1="196.7539" y2="218.7539"/><polygon fill="#A80036" points="188.75,208.7539,192.75,218.7539,196.75,208.7539,192.75,212.7539" style="stroke:#A80036;stroke-width:1.0;"/><line style="stroke:#A80036;stroke-width:1.5;" x1="508.125" x2="538.5" y1="196.7539" y2="196.7539"/><line style="stroke:#A80036;stroke-width:1.5;" x1="538.5" x2="538.5" y1="196.7539" y2="218.7539"/><polygon fill="#A80036" points="534.5,208.7539,538.5,218.7539,542.5,208.7539,538.5,212.7539" style="stroke:#A80036;stroke-width:1.0;"/><line style="stroke:#A80036;stroke-width:1.5;" x1="365.625" x2="365.625" y1="160.3516" y2="184.7539"/><polygon fill="#A80036" points="361.625,174.7539,365.625,184.7539,369.625,174.7539,365.625,178.7539" style="stroke:#A80036;stroke-width:1.0;"/><line style="stroke:#A80036;stroke-width:1.5;" x1="433.125" x2="455.125" y1="148.3516" y2="148.3516"/><polygon fill="#A80036" points="445.125,144.3516,455.125,148.3516,445.125,152.3516,449.125,148.3516" style="stroke:#A80036;stroke-width:1.0;"/><line style="stroke:#A80036;stroke-width:1.5;" x1="365.625" x2="365.625" y1="105.6367" y2="136.3516"/><polygon fill="#A80036" points="361.625,126.3516,365.625,136.3516,369.625,126.3516,365.625,130.3516" style="stroke:#A80036;stroke-width:1.0;"/><!--MD5=[9c6f37b2638f3c8010efb5bd98c8c5d1]
@startuml
title recc - Local/Remote Execution

start
:Parse command;

note right
A "compiler command" invokes a
known compiler with "-c" in its
argument list.
end note

if (RECC_NO_EXECUTE) then (1)
    stop
else (0)
  if (Compiler command or RECC_FORCE_REMOTE?) then (yes)
    if (RECC_CACHE_ONLY) then (1)
      if (Action Cache hit?) then (yes)
        stop
      else (no)
        :Execute locally;
        stop
      endif
    else (0)
      if (RECC_SKIP_CACHE) then (0)
          if (Action Cache hit?) then (yes)
            stop
          else (no)
          endif
      else (1)
      endif
    :Remote execution;
    stop
    endif
  else (no)
    :Execute locally;
    stop
  endif
endif
@enduml

PlantUML version 1.2021.10beta2(Unknown compile time)
(GPL source distribution)
Java Runtime: Java(TM) SE Runtime Environment
JVM: Java HotSpot(TM) 64-Bit Server VM
Default Encoding: UTF-8
Language: en
Country: US
--></g></svg>